<svg width="31" height="30" viewBox="0 0 31 30" fill="none" xmlns="http://www.w3.org/2000/svg">
<g clip-path="url(#clip0_1_10219)">
<path d="M28.0147 0H2.97746C1.60937 0 0.414062 0.984375 0.414062 2.33638V27.4292C0.414062 28.7886 1.60937 30 2.97746 30H28.0074C29.3828 30 30.4141 28.7806 30.4141 27.4292V2.33638C30.4221 0.984375 29.3828 0 28.0147 0ZM9.71339 25.0065H5.41563V11.6438H9.71339V25.0065ZM7.71317 9.61205H7.68237C6.30692 9.61205 5.41629 8.58817 5.41629 7.30647C5.41629 6.00134 6.33036 5.00156 7.73661 5.00156C9.14286 5.00156 10.0033 5.99397 10.0342 7.30647C10.0335 8.58817 9.14286 9.61205 7.71317 9.61205ZM25.4205 25.0065H21.1228V17.7C21.1228 15.9496 20.4973 14.7536 18.9424 14.7536C17.7545 14.7536 17.0513 15.5571 16.7386 16.34C16.6214 16.6212 16.59 17.0042 16.59 17.3953V25.0065H12.2922V11.6438H16.59V13.5033C17.2154 12.6127 18.1924 11.331 20.4658 11.331C23.2871 11.331 25.4212 13.1906 25.4212 17.1998L25.4205 25.0065Z" fill="black"/>
</g>
<defs>
<clipPath id="clip0_1_10219">
<rect width="30" height="30" fill="white" transform="translate(0.131836)"/>
</clipPath>
</defs>
</svg>
