<svg width="31" height="30" viewBox="0 0 31 30" fill="none" xmlns="http://www.w3.org/2000/svg">
<g clip-path="url(#clip0_1_10221)">
<path d="M12.7525 17.457C12.7525 18.7387 11.815 19.1437 10.6632 19.1437H7.64314V15.6309H10.7235C11.969 15.6375 12.7525 16.1488 12.7525 17.457ZM12.2369 11.9918C12.2369 10.8164 11.3195 10.5375 10.3016 10.5375H7.64983V13.5125H10.5092C11.5204 13.5125 12.2369 13.0742 12.2369 11.9918ZM21.0963 13.5324C19.8708 13.5324 19.0539 14.2895 18.9735 15.5047H23.1387C23.0248 14.2762 22.382 13.5324 21.0963 13.5324ZM30.2637 3.3125V26.6875C30.2637 28.4473 28.8239 29.875 27.0494 29.875H3.47796C1.7034 29.875 0.263672 28.4473 0.263672 26.6875V3.3125C0.263672 1.55273 1.7034 0.125 3.47796 0.125H27.0494C28.8239 0.125 30.2637 1.55273 30.2637 3.3125ZM18.4579 10.2852H23.6677V9.03008H18.4579V10.2852ZM15.5784 17.6098C15.5784 16.0094 14.815 14.6281 13.2347 14.1832C14.3864 13.6387 14.9891 13.0078 14.9891 11.7262C14.9891 9.18945 13.0806 8.57187 10.8775 8.57187H4.81724V21.3219H11.0516C13.3887 21.3086 15.5784 20.1996 15.5784 17.6098ZM25.7101 16.627C25.7101 13.8977 24.0963 11.6199 21.1833 11.6199C18.344 11.6199 16.4222 13.7316 16.4222 16.5074C16.4222 19.3828 18.2503 21.3551 21.1833 21.3551C23.4065 21.3551 24.8463 20.3656 25.5427 18.2473H23.286C23.0382 19.0375 22.0405 19.4492 21.2637 19.4492C19.7637 19.4492 18.9802 18.5793 18.9802 17.1051H25.69C25.6967 16.9523 25.7101 16.7863 25.7101 16.627Z" fill="black"/>
</g>
<defs>
<clipPath id="clip0_1_10221">
<rect width="30" height="30" fill="white" transform="translate(0.131836)"/>
</clipPath>
</defs>
</svg>
