<svg width="31" height="30" viewBox="0 0 31 30" fill="none" xmlns="http://www.w3.org/2000/svg">
<g clip-path="url(#clip0_1_10223)">
<path d="M19.9318 15C19.9318 15.9494 19.6503 16.8774 19.1229 17.6667C18.5955 18.4561 17.8458 19.0713 16.9687 19.4346C16.0916 19.7979 15.1265 19.893 14.1954 19.7078C13.2643 19.5226 12.409 19.0654 11.7377 18.3941C11.0664 17.7228 10.6093 16.8675 10.4241 15.9364C10.2389 15.0053 10.3339 14.0402 10.6972 13.1631C11.0605 12.286 11.6757 11.5364 12.4651 11.0089C13.2545 10.4815 14.1825 10.2 15.1318 10.2C16.4037 10.204 17.6223 10.7109 18.5216 11.6103C19.4209 12.5096 19.9279 13.7282 19.9318 15ZM30.1318 8.4V21.6C30.1318 23.8278 29.2468 25.9644 27.6715 27.5397C26.0962 29.115 23.9597 30 21.7318 30H8.53184C6.30402 30 4.16744 29.115 2.59214 27.5397C1.01683 25.9644 0.131836 23.8278 0.131836 21.6V8.4C0.131836 6.17218 1.01683 4.03561 2.59214 2.4603C4.16744 0.884997 6.30402 0 8.53184 0H21.7318C23.9597 0 26.0962 0.884997 27.6715 2.4603C29.2468 4.03561 30.1318 6.17218 30.1318 8.4ZM22.3318 15C22.3318 13.576 21.9096 12.1839 21.1184 10.9999C20.3273 9.81586 19.2028 8.89302 17.8872 8.34807C16.5715 7.80312 15.1238 7.66053 13.7272 7.93835C12.3305 8.21616 11.0476 8.90189 10.0407 9.90883C9.03373 10.9158 8.348 12.1987 8.07018 13.5954C7.79237 14.992 7.93495 16.4397 8.4799 17.7553C9.02485 19.0709 9.9477 20.1954 11.1317 20.9866C12.3158 21.7777 13.7078 22.2 15.1318 22.2C17.0414 22.2 18.8727 21.4414 20.223 20.0912C21.5733 18.7409 22.3318 16.9096 22.3318 15ZM24.7318 7.2C24.7318 6.84399 24.6263 6.49598 24.4285 6.19997C24.2307 5.90397 23.9496 5.67325 23.6207 5.53702C23.2918 5.40078 22.9298 5.36513 22.5807 5.43459C22.2315 5.50404 21.9108 5.67547 21.659 5.92721C21.4073 6.17894 21.2359 6.49967 21.1664 6.84884C21.097 7.198 21.1326 7.55992 21.2689 7.88883C21.4051 8.21774 21.6358 8.49886 21.9318 8.69665C22.2278 8.89443 22.5758 9 22.9318 9C23.4092 9 23.8671 8.81036 24.2046 8.47279C24.5422 8.13523 24.7318 7.67739 24.7318 7.2Z" fill="black"/>
</g>
<defs>
<clipPath id="clip0_1_10223">
<rect width="30" height="30" fill="white" transform="translate(0.131836)"/>
</clipPath>
</defs>
</svg>
